<svg xmlns="http://www.w3.org/2000/svg" viewBox="0 0 120 120" role="img" aria-label="小蜜蜂·金蜜皮肤 守护">
  <ellipse cx="60" cy="100" rx="34" ry="5" fill="#DCE5CC"/>
  <ellipse cx="50" cy="40" rx="12.959999999999999" ry="18" fill="#FDF3D8" opacity="0.85"/>
  <ellipse cx="70" cy="40" rx="12.959999999999999" ry="18" fill="#FDF3D8" opacity="0.85"/>
  <path d="M52 50 Q46 36 40 38" stroke="#5C4308" stroke-width="2.4" fill="none" stroke-linecap="round"/>
  <path d="M68 50 Q74 36 80 38" stroke="#5C4308" stroke-width="2.4" fill="none" stroke-linecap="round"/>
  <ellipse cx="66" cy="70" rx="30" ry="22" fill="#E8A93E"/>
  <rect x="63" y="48" width="8.4" height="44" rx="4.2" fill="#5C4308" transform="rotate(8 66 70)"/>
  <rect x="76.5" y="48.88" width="7.199999999999999" height="41.8" rx="3.5999999999999996" fill="#5C4308" transform="rotate(8 66 70)"/>
  <circle cx="32" cy="68" r="18.04" fill="#5C4308"/>
  <circle cx="34" cy="65" r="4.4" fill="#FFFFFF"/>
  <circle cx="35" cy="65" r="2.2" fill="#1E2A1B"/>
  <path d="M12.399999999999999 72 L3.3999999999999986 76 L12.399999999999999 79 Z" fill="#5C4308"/>
  <path d="M29 78 Q35 83 40 78" stroke="#FFFFFF" stroke-width="1.8" fill="none" stroke-linecap="round"/>
  <rect x="92" y="66" width="14" height="12" rx="3" fill="#B8762A"/>
  <rect x="91" y="64" width="16" height="4" rx="2" fill="#8A6B4F"/>
  <path d="M24 42 q-4 6 0 9 q5 -2 3 -8 Z" fill="#7FB3D8"/>
  <circle cx="63.5" cy="32" r="3.4" fill="#F6F2E8"/>
  <circle cx="59.69959346906221" cy="37.230810839623345" r="3.4" fill="#F6F2E8"/>
  <circle cx="53.55040653093779" cy="35.2328188876086" r="3.4" fill="#F6F2E8"/>
  <circle cx="53.55040653093779" cy="28.7671811123914" r="3.4" fill="#F6F2E8"/>
  <circle cx="59.69959346906221" cy="26.769189160376655" r="3.4" fill="#F6F2E8"/>
  <circle cx="58" cy="32" r="3" fill="#E8B94A"/>
  <path d="M44 36 Q60 18 76 36 Q60 28 44 36 Z" fill="#B8762A"/>
  <circle cx="22" cy="34" r="2.4" fill="#FFE9A8"/>
  <circle cx="98" cy="42" r="2.4" fill="#FFE9A8"/>
  <circle cx="30" cy="88" r="2.4" fill="#FFE9A8"/>
  <circle cx="92" cy="84" r="2.4" fill="#FFE9A8"/>
</svg>
