<svg xmlns="http://www.w3.org/2000/svg" width="512" height="512" viewBox="0 0 512 512"><defs><linearGradient id="paint-1" gradientUnits="userSpaceOnUse" x1="-75" y1="-260" x2="33" y2="0"><stop offset="0" stop-color="#C7A171"/><stop offset="1" stop-color="#A47D53"/></linearGradient><linearGradient id="paint-2" gradientUnits="userSpaceOnUse" x1="-40" y1="-100" x2="45" y2="70"><stop offset="0" stop-color="#B1CA88"/><stop offset="1" stop-color="#91B573"/></linearGradient><linearGradient id="paint-3" gradientUnits="userSpaceOnUse" x1="-40" y1="-100" x2="45" y2="70"><stop offset="0" stop-color="#B1CA88"/><stop offset="1" stop-color="#91B573"/></linearGradient><linearGradient id="paint-4" gradientUnits="userSpaceOnUse" x1="-40" y1="-100" x2="45" y2="70"><stop offset="0" stop-color="#B1CA88"/><stop offset="1" stop-color="#91B573"/></linearGradient><linearGradient id="paint-5" gradientUnits="userSpaceOnUse" x1="0" y1="-100" x2="65" y2="90"><stop offset="0" stop-color="#ACC68F"/><stop offset="1" stop-color="#96B277"/></linearGradient><linearGradient id="paint-6" gradientUnits="userSpaceOnUse" x1="0" y1="-100" x2="65" y2="90"><stop offset="0" stop-color="#ACC68F"/><stop offset="1" stop-color="#9BB77C"/></linearGradient><linearGradient id="paint-7" gradientUnits="userSpaceOnUse" x1="0" y1="-35" x2="10" y2="60"><stop offset="0" stop-color="#F7D67B"/><stop offset="1" stop-color="#E1AA49"/></linearGradient></defs><g id="ground" transform="translate(0 0) rotate(0) scale(1 1)"><path d="M 91 458 C 91 444.745 164.873 434 256 434 C 347.127 434 421 444.745 421 458 C 421 471.255 347.127 482 256 482 C 164.873 482 91 471.255 91 458 Z" fill="#DBE5BD"/><path d="M91 449 Q256 481 421 449 L411 467 Q256 480 101 467Z" fill="#BDCEA0"/><path d="M 91 448 C 91 430.879 164.873 417 256 417 C 347.127 417 421 430.879 421 448 C 421 465.121 347.127 479 256 479 C 164.873 479 91 465.121 91 448 Z" fill="#D9E5B7"/><path d="M165.25 448 Q249 429 361.6 444 Q282 470 165.25 448Z" fill="#E6EDCC"/></g><g id="trunk" transform="translate(256 456) rotate(0) scale(0.89 0.89)"><path id="trunk0--wood" d="M-35 0 C-14 -37 -18 -87 -25 -128 C-42 -157 -75 -182 -90 -208 L-78 -214 C-56 -184 -29 -182 -14 -160 C-7 -195 -14 -242 -2 -275 L13 -271 C2 -223 10 -198 16 -177 C32 -203 57 -217 70 -243 L82 -237 C66 -195 37 -174 19 -139 C23 -78 10 -27 37 0 Q10 -5 0 -10 Q-12 1 -35 0Z" fill="url(#paint-1)"/><path opacity="0.73" d="M-5 -253 C-11 -204 2 -155 0 -117 C7 -79 -6 -32 1 -13 L17 -4 C8 -34 18 -78 16 -115 C14 -165 4 -204 8 -263Z" fill="#DEBC88"/><path d="M-29 0 Q-54 5 -65 1 Q-51 -13 -28 -17 M24 -9 Q43 -12 53 3 Q33 4 17 -4Z" fill="#AD885C"/><path opacity="0.6" d="M-12 -111 Q-6 -87 -10 -67 M7 -177 Q17 -150 8 -125" fill="none" stroke="#916D48" stroke-width="2.2" stroke-linecap="round" stroke-linejoin="round"/></g><g id="canopy" transform="translate(0 0) rotate(0) scale(1 1)"><g id="canopy0--crown-0" transform="translate(207 250) rotate(0) scale(0.7 0.7)"><path d="M-69 7 C-103 -3 -104 -38 -79 -52 C-82 -79 -54 -95 -31 -86 C-15 -108 20 -102 32 -85 C61 -97 90 -81 87 -57 C119 -37 110 0 90 10 C94 40 67 62 38 56 C10 74 -22 60 -30 49 C-65 61 -91 39 -69 7Z" fill="url(#paint-2)"/><path opacity="0.7" d="M-76 -24 C-73 -51 -52 -56 -34 -51 C-22 -82 11 -84 35 -64" fill="none" stroke="#C1D59A" stroke-width="15" stroke-linecap="round" stroke-linejoin="round"/><path opacity="0.16" d="M-62 22 Q-25 6 -18 41 Q9 18 33 42 Q67 15 84 13 C88 47 58 62 38 56 Q-4 74 -30 49 Q-65 63 -73 33Z" fill="#608D62"/></g><g id="canopy1--crown-1" transform="translate(302 246) rotate(0) scale(0.68 0.68)"><path d="M-69 7 C-103 -3 -104 -38 -79 -52 C-82 -79 -54 -95 -31 -86 C-15 -108 20 -102 32 -85 C61 -97 90 -81 87 -57 C119 -37 110 0 90 10 C94 40 67 62 38 56 C10 74 -22 60 -30 49 C-65 61 -91 39 -69 7Z" fill="url(#paint-3)"/><path opacity="0.7" d="M-76 -24 C-73 -51 -52 -56 -34 -51 C-22 -82 11 -84 35 -64" fill="none" stroke="#C1D59A" stroke-width="15" stroke-linecap="round" stroke-linejoin="round"/><path opacity="0.16" d="M-62 22 Q-25 6 -18 41 Q9 18 33 42 Q67 15 84 13 C88 47 58 62 38 56 Q-4 74 -30 49 Q-65 63 -73 33Z" fill="#608D62"/></g><g id="canopy2--crown-2" transform="translate(259 210) rotate(0) scale(0.7 0.7)"><path d="M-69 7 C-103 -3 -104 -38 -79 -52 C-82 -79 -54 -95 -31 -86 C-15 -108 20 -102 32 -85 C61 -97 90 -81 87 -57 C119 -37 110 0 90 10 C94 40 67 62 38 56 C10 74 -22 60 -30 49 C-65 61 -91 39 -69 7Z" fill="url(#paint-4)"/><path opacity="0.7" d="M-76 -24 C-73 -51 -52 -56 -34 -51 C-22 -82 11 -84 35 -64" fill="none" stroke="#C1D59A" stroke-width="15" stroke-linecap="round" stroke-linejoin="round"/><path opacity="0.16" d="M-62 22 Q-25 6 -18 41 Q9 18 33 42 Q67 15 84 13 C88 47 58 62 38 56 Q-4 74 -30 49 Q-65 63 -73 33Z" fill="#608D62"/></g></g><g id="roots-details" transform="translate(0 0) rotate(0) scale(1 1)"><path d="M 294 459 C 294 455.686 299.373 453 306 453 C 312.627 453 318 455.686 318 459 C 318 462.314 312.627 465 306 465 C 299.373 465 294 462.314 294 459 Z" fill="#C0B392"/><path d="M 186 461 C 186 458.239 190.029 456 195 456 C 199.971 456 204 458.239 204 461 C 204 463.761 199.971 466 195 466 C 190.029 466 186 463.761 186 461 Z" fill="#C6BC9A"/><g id="roots-details2--ground-leaf-a" transform="translate(193 454) rotate(-38) scale(0.29 0.29)"><path d="M0 0 C-32 -12 -45 -53 -30 -78 C7 -75 30 -34 0 0Z" fill="url(#paint-5)"/><path d="M0 -2 Q-7 -35 -28 -69" fill="none" stroke="#D6E2B5" stroke-width="2.5" stroke-linecap="round" stroke-linejoin="round"/></g><g id="roots-details3--ground-leaf-b" transform="translate(319 453) rotate(66) scale(0.25 0.25)"><path d="M0 0 C-32 -12 -45 -53 -30 -78 C7 -75 30 -34 0 0Z" fill="url(#paint-6)"/><path d="M0 -2 Q-7 -35 -28 -69" fill="none" stroke="#D6E2B5" stroke-width="2.5" stroke-linecap="round" stroke-linejoin="round"/></g></g><g id="hive" transform="translate(344 312) rotate(0) scale(0.64 0.64)"><path d="M0 -63 L0 -39" fill="none" stroke="#A08352" stroke-width="5" stroke-linecap="round" stroke-linejoin="round"/><path d="M-11 -38 Q0 -51 11 -38Z" fill="#AD8952"/><path d="M-17 -35 C-31 -29 -41 -7 -43 13 C-46 44 -20 63 5 60 C40 61 51 39 45 13 C44 -9 25 -33 12 -35Z" fill="url(#paint-7)"/><path d="M-26 -24 Q-2 -12 28 -21 M-40 -2 Q-1 15 41 -1 M-43 23 Q0 37 46 20 M-30 48 Q0 59 30 45" fill="none" stroke="#D89B3B" stroke-width="4" stroke-linecap="round" stroke-linejoin="round"/><path d="M-21 -30 Q-28 -18 -26 -13" fill="none" stroke="#FFE8A2" stroke-width="4" stroke-linecap="round" stroke-linejoin="round"/><path d="M -8 28 C -8 19.716 -2.627 13 4 13 C 10.627 13 16 19.716 16 28 C 16 36.284 10.627 43 4 43 C -2.627 43 -8 36.284 -8 28 Z" fill="#A17738"/><path d="M -2 32 C -2 26.477 1.582 22 6 22 C 10.418 22 14 26.477 14 32 C 14 37.523 10.418 42 6 42 C 1.582 42 -2 37.523 -2 32 Z" fill="#876033"/></g><g id="garden" transform="translate(0 0) rotate(0) scale(1 1)"><g id="garden0--garden-flower-0" transform="translate(143 436) rotate(0) scale(0.42 0.42)"><g transform="translate(0 0) rotate(0) scale(1 1)"><path d="M -9 -15 C -9 -22.732 -4.971 -29 0 -29 C 4.971 -29 9 -22.732 9 -15 C 9 -7.268 4.971 -1 0 -1 C -4.971 -1 -9 -7.268 -9 -15 Z" fill="#FFFAE8"/></g><g transform="translate(0 0) rotate(72) scale(1 1)"><path d="M -9 -15 C -9 -22.732 -4.971 -29 0 -29 C 4.971 -29 9 -22.732 9 -15 C 9 -7.268 4.971 -1 0 -1 C -4.971 -1 -9 -7.268 -9 -15 Z" fill="#FFFAE8"/></g><g transform="translate(0 0) rotate(144) scale(1 1)"><path d="M -9 -15 C -9 -22.732 -4.971 -29 0 -29 C 4.971 -29 9 -22.732 9 -15 C 9 -7.268 4.971 -1 0 -1 C -4.971 -1 -9 -7.268 -9 -15 Z" fill="#FFFAE8"/></g><g transform="translate(0 0) rotate(216) scale(1 1)"><path d="M -9 -15 C -9 -22.732 -4.971 -29 0 -29 C 4.971 -29 9 -22.732 9 -15 C 9 -7.268 4.971 -1 0 -1 C -4.971 -1 -9 -7.268 -9 -15 Z" fill="#FFFAE8"/></g><g transform="translate(0 0) rotate(288) scale(1 1)"><path d="M -9 -15 C -9 -22.732 -4.971 -29 0 -29 C 4.971 -29 9 -22.732 9 -15 C 9 -7.268 4.971 -1 0 -1 C -4.971 -1 -9 -7.268 -9 -15 Z" fill="#FFFAE8"/></g><path d="M -8 0 C -8 -4.418 -4.418 -8 0 -8 C 4.418 -8 8 -4.418 8 0 C 8 4.418 4.418 8 0 8 C -4.418 8 -8 4.418 -8 0 Z" fill="#EBC25D"/><path d="M -5 -2 C -5 -3.657 -3.657 -5 -2 -5 C -0.343 -5 1 -3.657 1 -2 C 1 -0.343 -0.343 1 -2 1 C -3.657 1 -5 -0.343 -5 -2 Z" fill="#FFE39A"/></g><g id="garden1--garden-flower-1" transform="translate(163 447) rotate(0) scale(0.4 0.4)"><g transform="translate(0 0) rotate(0) scale(1 1)"><path d="M -9 -15 C -9 -22.732 -4.971 -29 0 -29 C 4.971 -29 9 -22.732 9 -15 C 9 -7.268 4.971 -1 0 -1 C -4.971 -1 -9 -7.268 -9 -15 Z" fill="#FFFAE8"/></g><g transform="translate(0 0) rotate(72) scale(1 1)"><path d="M -9 -15 C -9 -22.732 -4.971 -29 0 -29 C 4.971 -29 9 -22.732 9 -15 C 9 -7.268 4.971 -1 0 -1 C -4.971 -1 -9 -7.268 -9 -15 Z" fill="#FFFAE8"/></g><g transform="translate(0 0) rotate(144) scale(1 1)"><path d="M -9 -15 C -9 -22.732 -4.971 -29 0 -29 C 4.971 -29 9 -22.732 9 -15 C 9 -7.268 4.971 -1 0 -1 C -4.971 -1 -9 -7.268 -9 -15 Z" fill="#FFFAE8"/></g><g transform="translate(0 0) rotate(216) scale(1 1)"><path d="M -9 -15 C -9 -22.732 -4.971 -29 0 -29 C 4.971 -29 9 -22.732 9 -15 C 9 -7.268 4.971 -1 0 -1 C -4.971 -1 -9 -7.268 -9 -15 Z" fill="#FFFAE8"/></g><g transform="translate(0 0) rotate(288) scale(1 1)"><path d="M -9 -15 C -9 -22.732 -4.971 -29 0 -29 C 4.971 -29 9 -22.732 9 -15 C 9 -7.268 4.971 -1 0 -1 C -4.971 -1 -9 -7.268 -9 -15 Z" fill="#FFFAE8"/></g><path d="M -8 0 C -8 -4.418 -4.418 -8 0 -8 C 4.418 -8 8 -4.418 8 0 C 8 4.418 4.418 8 0 8 C -4.418 8 -8 4.418 -8 0 Z" fill="#EBC25D"/><path d="M -5 -2 C -5 -3.657 -3.657 -5 -2 -5 C -0.343 -5 1 -3.657 1 -2 C 1 -0.343 -0.343 1 -2 1 C -3.657 1 -5 -0.343 -5 -2 Z" fill="#FFE39A"/></g><g id="garden2--garden-flower-2" transform="translate(347 443) rotate(0) scale(0.47 0.47)"><g transform="translate(0 0) rotate(0) scale(1 1)"><path d="M -9 -15 C -9 -22.732 -4.971 -29 0 -29 C 4.971 -29 9 -22.732 9 -15 C 9 -7.268 4.971 -1 0 -1 C -4.971 -1 -9 -7.268 -9 -15 Z" fill="#FFFAE8"/></g><g transform="translate(0 0) rotate(72) scale(1 1)"><path d="M -9 -15 C -9 -22.732 -4.971 -29 0 -29 C 4.971 -29 9 -22.732 9 -15 C 9 -7.268 4.971 -1 0 -1 C -4.971 -1 -9 -7.268 -9 -15 Z" fill="#FFFAE8"/></g><g transform="translate(0 0) rotate(144) scale(1 1)"><path d="M -9 -15 C -9 -22.732 -4.971 -29 0 -29 C 4.971 -29 9 -22.732 9 -15 C 9 -7.268 4.971 -1 0 -1 C -4.971 -1 -9 -7.268 -9 -15 Z" fill="#FFFAE8"/></g><g transform="translate(0 0) rotate(216) scale(1 1)"><path d="M -9 -15 C -9 -22.732 -4.971 -29 0 -29 C 4.971 -29 9 -22.732 9 -15 C 9 -7.268 4.971 -1 0 -1 C -4.971 -1 -9 -7.268 -9 -15 Z" fill="#FFFAE8"/></g><g transform="translate(0 0) rotate(288) scale(1 1)"><path d="M -9 -15 C -9 -22.732 -4.971 -29 0 -29 C 4.971 -29 9 -22.732 9 -15 C 9 -7.268 4.971 -1 0 -1 C -4.971 -1 -9 -7.268 -9 -15 Z" fill="#FFFAE8"/></g><path d="M -8 0 C -8 -4.418 -4.418 -8 0 -8 C 4.418 -8 8 -4.418 8 0 C 8 4.418 4.418 8 0 8 C -4.418 8 -8 4.418 -8 0 Z" fill="#EBC25D"/><path d="M -5 -2 C -5 -3.657 -3.657 -5 -2 -5 C -0.343 -5 1 -3.657 1 -2 C 1 -0.343 -0.343 1 -2 1 C -3.657 1 -5 -0.343 -5 -2 Z" fill="#FFE39A"/></g><g id="garden3--garden-flower-3" transform="translate(366 438) rotate(0) scale(0.4 0.4)"><g transform="translate(0 0) rotate(0) scale(1 1)"><path d="M -9 -15 C -9 -22.732 -4.971 -29 0 -29 C 4.971 -29 9 -22.732 9 -15 C 9 -7.268 4.971 -1 0 -1 C -4.971 -1 -9 -7.268 -9 -15 Z" fill="#FFFAE8"/></g><g transform="translate(0 0) rotate(72) scale(1 1)"><path d="M -9 -15 C -9 -22.732 -4.971 -29 0 -29 C 4.971 -29 9 -22.732 9 -15 C 9 -7.268 4.971 -1 0 -1 C -4.971 -1 -9 -7.268 -9 -15 Z" fill="#FFFAE8"/></g><g transform="translate(0 0) rotate(144) scale(1 1)"><path d="M -9 -15 C -9 -22.732 -4.971 -29 0 -29 C 4.971 -29 9 -22.732 9 -15 C 9 -7.268 4.971 -1 0 -1 C -4.971 -1 -9 -7.268 -9 -15 Z" fill="#FFFAE8"/></g><g transform="translate(0 0) rotate(216) scale(1 1)"><path d="M -9 -15 C -9 -22.732 -4.971 -29 0 -29 C 4.971 -29 9 -22.732 9 -15 C 9 -7.268 4.971 -1 0 -1 C -4.971 -1 -9 -7.268 -9 -15 Z" fill="#FFFAE8"/></g><g transform="translate(0 0) rotate(288) scale(1 1)"><path d="M -9 -15 C -9 -22.732 -4.971 -29 0 -29 C 4.971 -29 9 -22.732 9 -15 C 9 -7.268 4.971 -1 0 -1 C -4.971 -1 -9 -7.268 -9 -15 Z" fill="#FFFAE8"/></g><path d="M -8 0 C -8 -4.418 -4.418 -8 0 -8 C 4.418 -8 8 -4.418 8 0 C 8 4.418 4.418 8 0 8 C -4.418 8 -8 4.418 -8 0 Z" fill="#EBC25D"/><path d="M -5 -2 C -5 -3.657 -3.657 -5 -2 -5 C -0.343 -5 1 -3.657 1 -2 C 1 -0.343 -0.343 1 -2 1 C -3.657 1 -5 -0.343 -5 -2 Z" fill="#FFE39A"/></g></g></svg>