<svg xmlns="http://www.w3.org/2000/svg" width="512" height="512" viewBox="0 0 512 512"><defs><linearGradient id="paint-1" gradientUnits="userSpaceOnUse" x1="-75" y1="-260" x2="33" y2="0"><stop offset="0" stop-color="#C7A171"/><stop offset="1" stop-color="#A47D53"/></linearGradient><linearGradient id="paint-2" gradientUnits="userSpaceOnUse" x1="-40" y1="-100" x2="45" y2="70"><stop offset="0" stop-color="#B1CA88"/><stop offset="1" stop-color="#91B573"/></linearGradient><linearGradient id="paint-3" gradientUnits="userSpaceOnUse" x1="-40" y1="-100" x2="45" y2="70"><stop offset="0" stop-color="#B1CA88"/><stop offset="1" stop-color="#91B573"/></linearGradient><linearGradient id="paint-4" gradientUnits="userSpaceOnUse" x1="-40" y1="-100" x2="45" y2="70"><stop offset="0" stop-color="#B1CA88"/><stop offset="1" stop-color="#91B573"/></linearGradient><linearGradient id="paint-5" gradientUnits="userSpaceOnUse" x1="-40" y1="-100" x2="45" y2="70"><stop offset="0" stop-color="#B1CA88"/><stop offset="1" stop-color="#91B573"/></linearGradient><linearGradient id="paint-6" gradientUnits="userSpaceOnUse" x1="-40" y1="-100" x2="45" y2="70"><stop offset="0" stop-color="#B1CA88"/><stop offset="1" stop-color="#91B573"/></linearGradient><linearGradient id="paint-7" gradientUnits="userSpaceOnUse" x1="0" y1="-100" x2="65" y2="90"><stop offset="0" stop-color="#ACC68F"/><stop offset="1" stop-color="#96B277"/></linearGradient><linearGradient id="paint-8" gradientUnits="userSpaceOnUse" x1="0" y1="-100" x2="65" y2="90"><stop offset="0" stop-color="#ACC68F"/><stop offset="1" stop-color="#9BB77C"/></linearGradient><linearGradient id="paint-9" gradientUnits="userSpaceOnUse" x1="0" y1="-35" x2="10" y2="60"><stop offset="0" stop-color="#F7D67B"/><stop offset="1" stop-color="#E1AA49"/></linearGradient><linearGradient id="paint-10" gradientUnits="userSpaceOnUse" x1="-32" y1="-90" x2="60" y2="0"><stop offset="0" stop-color="#A0B77B"/><stop offset="1" stop-color="#789661"/></linearGradient><linearGradient id="paint-11" gradientUnits="userSpaceOnUse" x1="0" y1="-100" x2="65" y2="90"><stop offset="0" stop-color="#ACC68F"/><stop offset="1" stop-color="#89AB75"/></linearGradient><linearGradient id="paint-12" gradientUnits="userSpaceOnUse" x1="0" y1="-100" x2="65" y2="90"><stop offset="0" stop-color="#ACC68F"/><stop offset="1" stop-color="#89AB75"/></linearGradient><linearGradient id="paint-13" gradientUnits="userSpaceOnUse" x1="0" y1="-100" x2="65" y2="90"><stop offset="0" stop-color="#ACC68F"/><stop offset="1" stop-color="#89AB75"/></linearGradient></defs><g id="ground" transform="translate(0 0) rotate(0) scale(1 1)"><path d="M 44 458 C 44 444.745 138.916 434 256 434 C 373.084 434 468 444.745 468 458 C 468 471.255 373.084 482 256 482 C 138.916 482 44 471.255 44 458 Z" fill="#DBE5BD"/><path d="M44 449 Q256 483 468 449 L458 467 Q256 480 54 467Z" fill="#BDCEA0"/><path d="M 44 448 C 44 430.879 138.916 417 256 417 C 373.084 417 468 430.879 468 448 C 468 465.121 373.084 479 256 479 C 138.916 479 44 465.121 44 448 Z" fill="#D9E5B7"/><path d="M139.4 448 Q249 429 391.68 444 Q282 470 139.4 448Z" fill="#E6EDCC"/></g><g id="trunk" transform="translate(256 456) rotate(0) scale(1.17 1.17)"><path id="trunk0--wood" d="M-35 0 C-14 -37 -18 -87 -25 -128 C-42 -157 -75 -182 -90 -208 L-78 -214 C-56 -184 -29 -182 -14 -160 C-7 -195 -14 -242 -2 -275 L13 -271 C2 -223 10 -198 16 -177 C32 -203 57 -217 70 -243 L82 -237 C66 -195 37 -174 19 -139 C23 -78 10 -27 37 0 Q10 -5 0 -10 Q-12 1 -35 0Z" fill="url(#paint-1)"/><path opacity="0.73" d="M-5 -253 C-11 -204 2 -155 0 -117 C7 -79 -6 -32 1 -13 L17 -4 C8 -34 18 -78 16 -115 C14 -165 4 -204 8 -263Z" fill="#DEBC88"/><path d="M-29 0 Q-54 5 -65 1 Q-51 -13 -28 -17 M24 -9 Q43 -12 53 3 Q33 4 17 -4Z" fill="#AD885C"/><path opacity="0.6" d="M-12 -111 Q-6 -87 -10 -67 M7 -177 Q17 -150 8 -125" fill="none" stroke="#916D48" stroke-width="2.2" stroke-linecap="round" stroke-linejoin="round"/></g><g id="canopy" transform="translate(0 0) rotate(0) scale(1 1)"><g id="canopy0--crown-0" transform="translate(155 242) rotate(0) scale(0.68 0.68)"><path d="M-69 7 C-103 -3 -104 -38 -79 -52 C-82 -79 -54 -95 -31 -86 C-15 -108 20 -102 32 -85 C61 -97 90 -81 87 -57 C119 -37 110 0 90 10 C94 40 67 62 38 56 C10 74 -22 60 -30 49 C-65 61 -91 39 -69 7Z" fill="url(#paint-2)"/><path opacity="0.7" d="M-76 -24 C-73 -51 -52 -56 -34 -51 C-22 -82 11 -84 35 -64" fill="none" stroke="#C1D59A" stroke-width="15" stroke-linecap="round" stroke-linejoin="round"/><path opacity="0.16" d="M-62 22 Q-25 6 -18 41 Q9 18 33 42 Q67 15 84 13 C88 47 58 62 38 56 Q-4 74 -30 49 Q-65 63 -73 33Z" fill="#608D62"/></g><g id="canopy1--crown-1" transform="translate(355 234) rotate(0) scale(0.69 0.69)"><path d="M-69 7 C-103 -3 -104 -38 -79 -52 C-82 -79 -54 -95 -31 -86 C-15 -108 20 -102 32 -85 C61 -97 90 -81 87 -57 C119 -37 110 0 90 10 C94 40 67 62 38 56 C10 74 -22 60 -30 49 C-65 61 -91 39 -69 7Z" fill="url(#paint-3)"/><path opacity="0.7" d="M-76 -24 C-73 -51 -52 -56 -34 -51 C-22 -82 11 -84 35 -64" fill="none" stroke="#C1D59A" stroke-width="15" stroke-linecap="round" stroke-linejoin="round"/><path opacity="0.16" d="M-62 22 Q-25 6 -18 41 Q9 18 33 42 Q67 15 84 13 C88 47 58 62 38 56 Q-4 74 -30 49 Q-65 63 -73 33Z" fill="#608D62"/></g><g id="canopy2--crown-2" transform="translate(207 159) rotate(0) scale(0.77 0.77)"><path d="M-69 7 C-103 -3 -104 -38 -79 -52 C-82 -79 -54 -95 -31 -86 C-15 -108 20 -102 32 -85 C61 -97 90 -81 87 -57 C119 -37 110 0 90 10 C94 40 67 62 38 56 C10 74 -22 60 -30 49 C-65 61 -91 39 -69 7Z" fill="url(#paint-4)"/><path opacity="0.7" d="M-76 -24 C-73 -51 -52 -56 -34 -51 C-22 -82 11 -84 35 -64" fill="none" stroke="#C1D59A" stroke-width="15" stroke-linecap="round" stroke-linejoin="round"/><path opacity="0.16" d="M-62 22 Q-25 6 -18 41 Q9 18 33 42 Q67 15 84 13 C88 47 58 62 38 56 Q-4 74 -30 49 Q-65 63 -73 33Z" fill="#608D62"/></g><g id="canopy3--crown-3" transform="translate(297 150) rotate(0) scale(0.85 0.85)"><path d="M-69 7 C-103 -3 -104 -38 -79 -52 C-82 -79 -54 -95 -31 -86 C-15 -108 20 -102 32 -85 C61 -97 90 -81 87 -57 C119 -37 110 0 90 10 C94 40 67 62 38 56 C10 74 -22 60 -30 49 C-65 61 -91 39 -69 7Z" fill="url(#paint-5)"/><path opacity="0.7" d="M-76 -24 C-73 -51 -52 -56 -34 -51 C-22 -82 11 -84 35 -64" fill="none" stroke="#C1D59A" stroke-width="15" stroke-linecap="round" stroke-linejoin="round"/><path opacity="0.16" d="M-62 22 Q-25 6 -18 41 Q9 18 33 42 Q67 15 84 13 C88 47 58 62 38 56 Q-4 74 -30 49 Q-65 63 -73 33Z" fill="#608D62"/></g><g id="canopy4--crown-4" transform="translate(255 229) rotate(0) scale(0.72 0.72)"><path d="M-69 7 C-103 -3 -104 -38 -79 -52 C-82 -79 -54 -95 -31 -86 C-15 -108 20 -102 32 -85 C61 -97 90 -81 87 -57 C119 -37 110 0 90 10 C94 40 67 62 38 56 C10 74 -22 60 -30 49 C-65 61 -91 39 -69 7Z" fill="url(#paint-6)"/><path opacity="0.7" d="M-76 -24 C-73 -51 -52 -56 -34 -51 C-22 -82 11 -84 35 -64" fill="none" stroke="#C1D59A" stroke-width="15" stroke-linecap="round" stroke-linejoin="round"/><path opacity="0.16" d="M-62 22 Q-25 6 -18 41 Q9 18 33 42 Q67 15 84 13 C88 47 58 62 38 56 Q-4 74 -30 49 Q-65 63 -73 33Z" fill="#608D62"/></g></g><g id="roots-details" transform="translate(0 0) rotate(0) scale(1 1)"><path d="M 294 459 C 294 455.686 299.373 453 306 453 C 312.627 453 318 455.686 318 459 C 318 462.314 312.627 465 306 465 C 299.373 465 294 462.314 294 459 Z" fill="#C0B392"/><path d="M 186 461 C 186 458.239 190.029 456 195 456 C 199.971 456 204 458.239 204 461 C 204 463.761 199.971 466 195 466 C 190.029 466 186 463.761 186 461 Z" fill="#C6BC9A"/><g id="roots-details2--ground-leaf-a" transform="translate(193 454) rotate(-38) scale(0.29 0.29)"><path d="M0 0 C-32 -12 -45 -53 -30 -78 C7 -75 30 -34 0 0Z" fill="url(#paint-7)"/><path d="M0 -2 Q-7 -35 -28 -69" fill="none" stroke="#D6E2B5" stroke-width="2.5" stroke-linecap="round" stroke-linejoin="round"/></g><g id="roots-details3--ground-leaf-b" transform="translate(319 453) rotate(66) scale(0.25 0.25)"><path d="M0 0 C-32 -12 -45 -53 -30 -78 C7 -75 30 -34 0 0Z" fill="url(#paint-8)"/><path d="M0 -2 Q-7 -35 -28 -69" fill="none" stroke="#D6E2B5" stroke-width="2.5" stroke-linecap="round" stroke-linejoin="round"/></g></g><g id="hive" transform="translate(381 291) rotate(0) scale(0.7 0.7)"><path d="M0 -63 L0 -39" fill="none" stroke="#A08352" stroke-width="5" stroke-linecap="round" stroke-linejoin="round"/><path d="M-11 -38 Q0 -51 11 -38Z" fill="#AD8952"/><path d="M-17 -35 C-31 -29 -41 -7 -43 13 C-46 44 -20 63 5 60 C40 61 51 39 45 13 C44 -9 25 -33 12 -35Z" fill="url(#paint-9)"/><path d="M-26 -24 Q-2 -12 28 -21 M-40 -2 Q-1 15 41 -1 M-43 23 Q0 37 46 20 M-30 48 Q0 59 30 45" fill="none" stroke="#D89B3B" stroke-width="4" stroke-linecap="round" stroke-linejoin="round"/><path d="M-21 -30 Q-28 -18 -26 -13" fill="none" stroke="#FFE8A2" stroke-width="4" stroke-linecap="round" stroke-linejoin="round"/><path d="M -8 28 C -8 19.716 -2.627 13 4 13 C 10.627 13 16 19.716 16 28 C 16 36.284 10.627 43 4 43 C -2.627 43 -8 36.284 -8 28 Z" fill="#A17738"/><path d="M -2 32 C -2 26.477 1.582 22 6 22 C 10.418 22 14 26.477 14 32 C 14 37.523 10.418 42 6 42 C 1.582 42 -2 37.523 -2 32 Z" fill="#876033"/></g><g id="garden" transform="translate(0 0) rotate(0) scale(1 1)"><g id="garden0--garden-flower-0" transform="translate(143 436) rotate(0) scale(0.42 0.42)"><g transform="translate(0 0) rotate(0) scale(1 1)"><path d="M -9 -15 C -9 -22.732 -4.971 -29 0 -29 C 4.971 -29 9 -22.732 9 -15 C 9 -7.268 4.971 -1 0 -1 C -4.971 -1 -9 -7.268 -9 -15 Z" fill="#FFFAE8"/></g><g transform="translate(0 0) rotate(72) scale(1 1)"><path d="M -9 -15 C -9 -22.732 -4.971 -29 0 -29 C 4.971 -29 9 -22.732 9 -15 C 9 -7.268 4.971 -1 0 -1 C -4.971 -1 -9 -7.268 -9 -15 Z" fill="#FFFAE8"/></g><g transform="translate(0 0) rotate(144) scale(1 1)"><path d="M -9 -15 C -9 -22.732 -4.971 -29 0 -29 C 4.971 -29 9 -22.732 9 -15 C 9 -7.268 4.971 -1 0 -1 C -4.971 -1 -9 -7.268 -9 -15 Z" fill="#FFFAE8"/></g><g transform="translate(0 0) rotate(216) scale(1 1)"><path d="M -9 -15 C -9 -22.732 -4.971 -29 0 -29 C 4.971 -29 9 -22.732 9 -15 C 9 -7.268 4.971 -1 0 -1 C -4.971 -1 -9 -7.268 -9 -15 Z" fill="#FFFAE8"/></g><g transform="translate(0 0) rotate(288) scale(1 1)"><path d="M -9 -15 C -9 -22.732 -4.971 -29 0 -29 C 4.971 -29 9 -22.732 9 -15 C 9 -7.268 4.971 -1 0 -1 C -4.971 -1 -9 -7.268 -9 -15 Z" fill="#FFFAE8"/></g><path d="M -8 0 C -8 -4.418 -4.418 -8 0 -8 C 4.418 -8 8 -4.418 8 0 C 8 4.418 4.418 8 0 8 C -4.418 8 -8 4.418 -8 0 Z" fill="#EBC25D"/><path d="M -5 -2 C -5 -3.657 -3.657 -5 -2 -5 C -0.343 -5 1 -3.657 1 -2 C 1 -0.343 -0.343 1 -2 1 C -3.657 1 -5 -0.343 -5 -2 Z" fill="#FFE39A"/></g><g id="garden1--garden-flower-1" transform="translate(163 447) rotate(0) scale(0.4 0.4)"><g transform="translate(0 0) rotate(0) scale(1 1)"><path d="M -9 -15 C -9 -22.732 -4.971 -29 0 -29 C 4.971 -29 9 -22.732 9 -15 C 9 -7.268 4.971 -1 0 -1 C -4.971 -1 -9 -7.268 -9 -15 Z" fill="#FFFAE8"/></g><g transform="translate(0 0) rotate(72) scale(1 1)"><path d="M -9 -15 C -9 -22.732 -4.971 -29 0 -29 C 4.971 -29 9 -22.732 9 -15 C 9 -7.268 4.971 -1 0 -1 C -4.971 -1 -9 -7.268 -9 -15 Z" fill="#FFFAE8"/></g><g transform="translate(0 0) rotate(144) scale(1 1)"><path d="M -9 -15 C -9 -22.732 -4.971 -29 0 -29 C 4.971 -29 9 -22.732 9 -15 C 9 -7.268 4.971 -1 0 -1 C -4.971 -1 -9 -7.268 -9 -15 Z" fill="#FFFAE8"/></g><g transform="translate(0 0) rotate(216) scale(1 1)"><path d="M -9 -15 C -9 -22.732 -4.971 -29 0 -29 C 4.971 -29 9 -22.732 9 -15 C 9 -7.268 4.971 -1 0 -1 C -4.971 -1 -9 -7.268 -9 -15 Z" fill="#FFFAE8"/></g><g transform="translate(0 0) rotate(288) scale(1 1)"><path d="M -9 -15 C -9 -22.732 -4.971 -29 0 -29 C 4.971 -29 9 -22.732 9 -15 C 9 -7.268 4.971 -1 0 -1 C -4.971 -1 -9 -7.268 -9 -15 Z" fill="#FFFAE8"/></g><path d="M -8 0 C -8 -4.418 -4.418 -8 0 -8 C 4.418 -8 8 -4.418 8 0 C 8 4.418 4.418 8 0 8 C -4.418 8 -8 4.418 -8 0 Z" fill="#EBC25D"/><path d="M -5 -2 C -5 -3.657 -3.657 -5 -2 -5 C -0.343 -5 1 -3.657 1 -2 C 1 -0.343 -0.343 1 -2 1 C -3.657 1 -5 -0.343 -5 -2 Z" fill="#FFE39A"/></g><g id="garden2--garden-flower-2" transform="translate(347 443) rotate(0) scale(0.47 0.47)"><g transform="translate(0 0) rotate(0) scale(1 1)"><path d="M -9 -15 C -9 -22.732 -4.971 -29 0 -29 C 4.971 -29 9 -22.732 9 -15 C 9 -7.268 4.971 -1 0 -1 C -4.971 -1 -9 -7.268 -9 -15 Z" fill="#FFFAE8"/></g><g transform="translate(0 0) rotate(72) scale(1 1)"><path d="M -9 -15 C -9 -22.732 -4.971 -29 0 -29 C 4.971 -29 9 -22.732 9 -15 C 9 -7.268 4.971 -1 0 -1 C -4.971 -1 -9 -7.268 -9 -15 Z" fill="#FFFAE8"/></g><g transform="translate(0 0) rotate(144) scale(1 1)"><path d="M -9 -15 C -9 -22.732 -4.971 -29 0 -29 C 4.971 -29 9 -22.732 9 -15 C 9 -7.268 4.971 -1 0 -1 C -4.971 -1 -9 -7.268 -9 -15 Z" fill="#FFFAE8"/></g><g transform="translate(0 0) rotate(216) scale(1 1)"><path d="M -9 -15 C -9 -22.732 -4.971 -29 0 -29 C 4.971 -29 9 -22.732 9 -15 C 9 -7.268 4.971 -1 0 -1 C -4.971 -1 -9 -7.268 -9 -15 Z" fill="#FFFAE8"/></g><g transform="translate(0 0) rotate(288) scale(1 1)"><path d="M -9 -15 C -9 -22.732 -4.971 -29 0 -29 C 4.971 -29 9 -22.732 9 -15 C 9 -7.268 4.971 -1 0 -1 C -4.971 -1 -9 -7.268 -9 -15 Z" fill="#FFFAE8"/></g><path d="M -8 0 C -8 -4.418 -4.418 -8 0 -8 C 4.418 -8 8 -4.418 8 0 C 8 4.418 4.418 8 0 8 C -4.418 8 -8 4.418 -8 0 Z" fill="#EBC25D"/><path d="M -5 -2 C -5 -3.657 -3.657 -5 -2 -5 C -0.343 -5 1 -3.657 1 -2 C 1 -0.343 -0.343 1 -2 1 C -3.657 1 -5 -0.343 -5 -2 Z" fill="#FFE39A"/></g><g id="garden3--garden-flower-3" transform="translate(366 438) rotate(0) scale(0.4 0.4)"><g transform="translate(0 0) rotate(0) scale(1 1)"><path d="M -9 -15 C -9 -22.732 -4.971 -29 0 -29 C 4.971 -29 9 -22.732 9 -15 C 9 -7.268 4.971 -1 0 -1 C -4.971 -1 -9 -7.268 -9 -15 Z" fill="#FFFAE8"/></g><g transform="translate(0 0) rotate(72) scale(1 1)"><path d="M -9 -15 C -9 -22.732 -4.971 -29 0 -29 C 4.971 -29 9 -22.732 9 -15 C 9 -7.268 4.971 -1 0 -1 C -4.971 -1 -9 -7.268 -9 -15 Z" fill="#FFFAE8"/></g><g transform="translate(0 0) rotate(144) scale(1 1)"><path d="M -9 -15 C -9 -22.732 -4.971 -29 0 -29 C 4.971 -29 9 -22.732 9 -15 C 9 -7.268 4.971 -1 0 -1 C -4.971 -1 -9 -7.268 -9 -15 Z" fill="#FFFAE8"/></g><g transform="translate(0 0) rotate(216) scale(1 1)"><path d="M -9 -15 C -9 -22.732 -4.971 -29 0 -29 C 4.971 -29 9 -22.732 9 -15 C 9 -7.268 4.971 -1 0 -1 C -4.971 -1 -9 -7.268 -9 -15 Z" fill="#FFFAE8"/></g><g transform="translate(0 0) rotate(288) scale(1 1)"><path d="M -9 -15 C -9 -22.732 -4.971 -29 0 -29 C 4.971 -29 9 -22.732 9 -15 C 9 -7.268 4.971 -1 0 -1 C -4.971 -1 -9 -7.268 -9 -15 Z" fill="#FFFAE8"/></g><path d="M -8 0 C -8 -4.418 -4.418 -8 0 -8 C 4.418 -8 8 -4.418 8 0 C 8 4.418 4.418 8 0 8 C -4.418 8 -8 4.418 -8 0 Z" fill="#EBC25D"/><path d="M -5 -2 C -5 -3.657 -3.657 -5 -2 -5 C -0.343 -5 1 -3.657 1 -2 C 1 -0.343 -0.343 1 -2 1 C -3.657 1 -5 -0.343 -5 -2 Z" fill="#FFE39A"/></g></g><g id="treehouse" transform="translate(243 248) rotate(0) scale(0.91 0.91)"><path d="M-76 -28 L20 -43 L89 -7 L88 82 L17 112 L-77 77Z" fill="#DDBB80"/><path d="M19 -43 L89 -7 L88 82 L17 112Z" fill="#C9A26A"/><path d="M-92 -23 L-30 -85 L105 -19 L29 10Z" fill="#577C51"/><path d="M-96 -26 L-32 -90 L105 -24 L30 6Z" fill="url(#paint-10)"/><path d="M-32 -90 L30 6 L-96 -26Z" fill="#9FB880"/><path d="M-32 -90 L105 -24 L30 6Z" fill="#839F6A"/><path d="M-18 -74 L44 -1 M1 -64 L63 -10 M22 -53 L84 -18 M-70 -44 L-7 -26 M-52 -63 L10 -39" fill="none" stroke="#B9C894" stroke-width="2.6" stroke-linecap="round" stroke-linejoin="round"/><path d="M-56 71 L-56 14 C-56 -12 -22 -14 -22 13 L-22 84Z" fill="#BD9866"/><path d="M-51 65 L-51 15 C-51 -5 -28 -5 -28 16 L-28 74Z" fill="#84ABAA"/><path d="M-40 1 L-40 71 M-51 27 L-28 31" fill="none" stroke="#F1D7A1" stroke-width="3" stroke-linecap="round" stroke-linejoin="round"/><path d="M44 22 L75 9 L75 53 L44 66Z" fill="#73988A"/><path d="M60 15 L60 59 M44 44 L75 31" fill="none" stroke="#EDCE93" stroke-width="3" stroke-linecap="round" stroke-linejoin="round"/><path d="M-11 84 L-11 20 L14 28 L14 94Z" fill="#A77E4F"/><path d="M-6 36 L-3 36 Q-2 36 -2 37 L-2 59 Q-2 60 -3 60 L-6 60 Q-7 60 -7 59 L-7 37 Q-7 36 -6 36 Z" fill="#E8C894"/><path d="M-69 62 L-30 72" fill="none" stroke="#EDC993" stroke-width="3" stroke-linecap="round" stroke-linejoin="round"/><path d="M-99 89 L34 123 L113 84 L106 97 L35 134 L-100 101Z" fill="#B58B53"/><path d="M-99 84 L30 116 L112 76 L114 87 L33 130 L-99 98Z" fill="#E1BC7D"/><path d="M30 57 L91 33 L91 75 L31 102Z" fill="#8E744C"/><path d="M33 79 L89 57" fill="none" stroke="#DEBE87" stroke-width="4" stroke-linecap="round" stroke-linejoin="round"/><path d="M37 70 L37 47 L43 44 L43 68Z" fill="#E3BD6B"/><path d="M47 70 L47 43 L53 40 L53 68Z" fill="#91AD8C"/><path d="M57 70 L57 39 L63 36 L63 68Z" fill="#C98C67"/><path d="M67 70 L67 35 L73 32 L73 68Z" fill="#A6BDAD"/><path d="M77 70 L77 31 L83 28 L83 68Z" fill="#D9CEA0"/><g id="treehouse24--railing" transform="translate(0 0) rotate(0) scale(1 1)"><path d="M-94 90 L-94 60" fill="none" stroke="#B38B55" stroke-width="5" stroke-linecap="round" stroke-linejoin="round"/><path d="M -97.5 59 C -97.5 57.067 -95.933 55.5 -94 55.5 C -92.067 55.5 -90.5 57.067 -90.5 59 C -90.5 60.933 -92.067 62.5 -94 62.5 C -95.933 62.5 -97.5 60.933 -97.5 59 Z" fill="#E7C995"/><path d="M-65 97 L-65 67" fill="none" stroke="#B38B55" stroke-width="5" stroke-linecap="round" stroke-linejoin="round"/><path d="M -68.5 66 C -68.5 64.067 -66.933 62.5 -65 62.5 C -63.067 62.5 -61.5 64.067 -61.5 66 C -61.5 67.933 -63.067 69.5 -65 69.5 C -66.933 69.5 -68.5 67.933 -68.5 66 Z" fill="#E7C995"/><path d="M-34 106 L-34 76" fill="none" stroke="#B38B55" stroke-width="5" stroke-linecap="round" stroke-linejoin="round"/><path d="M -37.5 75 C -37.5 73.067 -35.933 71.5 -34 71.5 C -32.067 71.5 -30.5 73.067 -30.5 75 C -30.5 76.933 -32.067 78.5 -34 78.5 C -35.933 78.5 -37.5 76.933 -37.5 75 Z" fill="#E7C995"/><path d="M-2 114 L-2 84" fill="none" stroke="#B38B55" stroke-width="5" stroke-linecap="round" stroke-linejoin="round"/><path d="M -5.5 83 C -5.5 81.067 -3.933 79.5 -2 79.5 C -0.067 79.5 1.5 81.067 1.5 83 C 1.5 84.933 -0.067 86.5 -2 86.5 C -3.933 86.5 -5.5 84.933 -5.5 83 Z" fill="#E7C995"/><path d="M31 121 L31 91" fill="none" stroke="#B38B55" stroke-width="5" stroke-linecap="round" stroke-linejoin="round"/><path d="M 27.5 90 C 27.5 88.067 29.067 86.5 31 86.5 C 32.933 86.5 34.5 88.067 34.5 90 C 34.5 91.933 32.933 93.5 31 93.5 C 29.067 93.5 27.5 91.933 27.5 90 Z" fill="#E7C995"/><path d="M57 108 L57 78" fill="none" stroke="#B38B55" stroke-width="5" stroke-linecap="round" stroke-linejoin="round"/><path d="M 53.5 77 C 53.5 75.067 55.067 73.5 57 73.5 C 58.933 73.5 60.5 75.067 60.5 77 C 60.5 78.933 58.933 80.5 57 80.5 C 55.067 80.5 53.5 78.933 53.5 77 Z" fill="#E7C995"/><path d="M82 96 L82 66" fill="none" stroke="#B38B55" stroke-width="5" stroke-linecap="round" stroke-linejoin="round"/><path d="M 78.5 65 C 78.5 63.067 80.067 61.5 82 61.5 C 83.933 61.5 85.5 63.067 85.5 65 C 85.5 66.933 83.933 68.5 82 68.5 C 80.067 68.5 78.5 66.933 78.5 65 Z" fill="#E7C995"/><path d="M110 81 L110 51" fill="none" stroke="#B38B55" stroke-width="5" stroke-linecap="round" stroke-linejoin="round"/><path d="M 106.5 50 C 106.5 48.067 108.067 46.5 110 46.5 C 111.933 46.5 113.5 48.067 113.5 50 C 113.5 51.933 111.933 53.5 110 53.5 C 108.067 53.5 106.5 51.933 106.5 50 Z" fill="#E7C995"/><path d="M-94 61 L31 92 L110 51" fill="none" stroke="#EACB91" stroke-width="6" stroke-linecap="round" stroke-linejoin="round"/></g></g><g id="stairs" transform="translate(0 0) rotate(0) scale(1 1)"><path d="M235 354.47 L269 361.47 L263 369.47 L229 362.47Z" fill="#D4B27B"/><path d="M228 370.47 L262 377.47 L256 385.47 L222 378.47Z" fill="#D4B27B"/><path d="M221 386.47 L255 393.47 L249 401.47 L215 394.47Z" fill="#D4B27B"/><path d="M214 402.47 L248 409.47 L242 417.47 L208 410.47Z" fill="#D4B27B"/><path d="M207 418.47 L241 425.47 L235 433.47 L201 426.47Z" fill="#D4B27B"/><path d="M200 434.47 L234 441.47 L228 449.47 L194 442.47Z" fill="#D4B27B"/><path d="M233 345.47 L189 445.47 M267 354.47 L222 453.47" fill="none" stroke="#AB8955" stroke-width="4" stroke-linecap="round" stroke-linejoin="round"/></g><g id="flag" transform="translate(261 142) rotate(0) scale(1 1)"><path d="M0 40 L0 -25" fill="none" stroke="#B99763" stroke-width="4" stroke-linecap="round" stroke-linejoin="round"/><path d="M2 -25 Q16 -35 37 -25 L28 -9 Q15 -18 2 -7Z" fill="#D6A575"/></g><g id="stream" transform="translate(0 0) rotate(0) scale(1 1)"><path d="M387 379 Q395 407 371 421 Q342 430 360 451 Q374 464 341 478 L299 481 Q341 463 324 449 Q302 425 346 409 Q366 398 363 384Z" fill="#AACCC2"/><path d="M378 393 Q376 414 351 424 Q327 436 345 449 Q360 463 327 475" fill="none" stroke="#D1E8D6" stroke-width="5" stroke-linecap="round" stroke-linejoin="round"/></g><g id="bridge" transform="translate(0 0) rotate(0) scale(1 1)"><path d="M321 440 Q372 397 423 418 L415 433 Q369 418 330 453Z" fill="#DABE89"/><path d="M324 429 Q373 388 425 407 M329 442 Q371 406 419 423" fill="none" stroke="#B28E59" stroke-width="5" stroke-linecap="round" stroke-linejoin="round"/><path d="M325 429 L327 453 M349 411 L351 436 M378 401 L378 425 M405 404 L404 425 M424 408 L421 430" fill="none" stroke="#BA9761" stroke-width="4" stroke-linecap="round" stroke-linejoin="round"/><path d="M340 434 L348 442 M356 425 L366 433 M375 420 L386 427 M395 419 L404 426" fill="none" stroke="#BE9D6A" stroke-width="2" stroke-linecap="round" stroke-linejoin="round"/></g><g id="reading-corner" transform="translate(0 0) rotate(0) scale(1 1)"><path d="M 104 442 C 104 437.029 117.879 433 135 433 C 152.121 433 166 437.029 166 442 C 166 446.971 152.121 451 135 451 C 117.879 451 104 446.971 104 442 Z" fill="#AE8D58"/><path d="M113 426 L154 426 Q158 426 158 430 L158 437 Q158 441 154 441 L113 441 Q109 441 109 437 L109 430 Q109 426 113 426 Z" fill="#CCA975"/><g transform="translate(128 421) rotate(0) scale(0.39 0.39)"><path d="M-60 -35 Q-30 -45 0 -21 Q30 -46 60 -34 L56 37 Q29 25 0 45 Q-26 27 -55 37Z" fill="#5A9785"/><path d="M-53 -36 Q-24 -42 0 -19 L0 35 Q-25 18 -49 26Z" fill="#FFF6E4"/><path d="M0 -19 Q27 -41 53 -36 L49 26 Q23 19 0 35Z" fill="#F2E7CE"/><path d="M0 -18 L0 35" fill="none" stroke="#CBBE9F" stroke-width="2" stroke-linecap="round" stroke-linejoin="round"/><path d="M-41 -17 Q-22 -16 -12 -6 M-41 -6 Q-22 -5 -12 5 M12 -5 Q29 -17 41 -16 M12 5 Q29 -7 41 -5" fill="none" stroke="#A9B79B" stroke-width="2.5" stroke-linecap="round" stroke-linejoin="round"/><path d="M36 12 L40 11 L38 35 L34 29 L31 32Z" fill="#D5A45B"/></g><path d="M150 420 L171 420 Q173 420 173 422 L173 425 Q173 427 171 427 L150 427 Q148 427 148 425 L148 422 Q148 420 150 420 Z" fill="#83A991"/><path d="M151 413 L171 413 Q173 413 173 415 L173 418 Q173 420 171 420 L151 420 Q149 420 149 418 L149 415 Q149 413 151 413 Z" fill="#E4BF7E"/></g><g id="swing" transform="translate(0 0) rotate(0) scale(1 1)"><path d="M164 294 L164 364 M196 299 L196 370" fill="none" stroke="#BAAA72" stroke-width="2.8" stroke-linecap="round" stroke-linejoin="round"/><path d="M155 364 L193 368 L201 374 L161 373Z" fill="#D7B881"/></g><g id="light" transform="translate(0 0) rotate(0) scale(1 1)"><path d="M321 298 L321 319" fill="none" stroke="#9C8255" stroke-width="2" stroke-linecap="round" stroke-linejoin="round"/><path d="M316 319 L327 319 Q330 319 330 322 L330 341 Q330 344 327 344 L316 344 Q313 344 313 341 L313 322 Q313 319 316 319 Z" fill="#B58C53"/><path d="M319 323 L324 323 Q326 323 326 325 L326 337 Q326 339 324 339 L319 339 Q317 339 317 337 L317 325 Q317 323 319 323 Z" fill="#F6D991"/></g><g id="plants" transform="translate(0 0) rotate(0) scale(1 1)"><g id="plants0--p1" transform="translate(94 449) rotate(-35) scale(0.4 0.4)"><path d="M0 0 C-32 -12 -45 -53 -30 -78 C7 -75 30 -34 0 0Z" fill="url(#paint-11)"/><path d="M0 -2 Q-7 -35 -28 -69" fill="none" stroke="#D6E2B5" stroke-width="2.5" stroke-linecap="round" stroke-linejoin="round"/></g><g id="plants1--p2" transform="translate(112 447) rotate(62) scale(0.46 0.46)"><path d="M0 0 C-32 -12 -45 -53 -30 -78 C7 -75 30 -34 0 0Z" fill="url(#paint-12)"/><path d="M0 -2 Q-7 -35 -28 -69" fill="none" stroke="#D6E2B5" stroke-width="2.5" stroke-linecap="round" stroke-linejoin="round"/></g><g id="plants2--p3" transform="translate(441 433) rotate(40) scale(0.35 0.35)"><path d="M0 0 C-32 -12 -45 -53 -30 -78 C7 -75 30 -34 0 0Z" fill="url(#paint-13)"/><path d="M0 -2 Q-7 -35 -28 -69" fill="none" stroke="#D6E2B5" stroke-width="2.5" stroke-linecap="round" stroke-linejoin="round"/></g><g id="plants3--f1" transform="translate(88 452) rotate(0) scale(0.39 0.39)"><g transform="translate(0 0) rotate(0) scale(1 1)"><path d="M -9 -15 C -9 -22.732 -4.971 -29 0 -29 C 4.971 -29 9 -22.732 9 -15 C 9 -7.268 4.971 -1 0 -1 C -4.971 -1 -9 -7.268 -9 -15 Z" fill="#FFFAE8"/></g><g transform="translate(0 0) rotate(72) scale(1 1)"><path d="M -9 -15 C -9 -22.732 -4.971 -29 0 -29 C 4.971 -29 9 -22.732 9 -15 C 9 -7.268 4.971 -1 0 -1 C -4.971 -1 -9 -7.268 -9 -15 Z" fill="#FFFAE8"/></g><g transform="translate(0 0) rotate(144) scale(1 1)"><path d="M -9 -15 C -9 -22.732 -4.971 -29 0 -29 C 4.971 -29 9 -22.732 9 -15 C 9 -7.268 4.971 -1 0 -1 C -4.971 -1 -9 -7.268 -9 -15 Z" fill="#FFFAE8"/></g><g transform="translate(0 0) rotate(216) scale(1 1)"><path d="M -9 -15 C -9 -22.732 -4.971 -29 0 -29 C 4.971 -29 9 -22.732 9 -15 C 9 -7.268 4.971 -1 0 -1 C -4.971 -1 -9 -7.268 -9 -15 Z" fill="#FFFAE8"/></g><g transform="translate(0 0) rotate(288) scale(1 1)"><path d="M -9 -15 C -9 -22.732 -4.971 -29 0 -29 C 4.971 -29 9 -22.732 9 -15 C 9 -7.268 4.971 -1 0 -1 C -4.971 -1 -9 -7.268 -9 -15 Z" fill="#FFFAE8"/></g><path d="M -8 0 C -8 -4.418 -4.418 -8 0 -8 C 4.418 -8 8 -4.418 8 0 C 8 4.418 4.418 8 0 8 C -4.418 8 -8 4.418 -8 0 Z" fill="#EBC25D"/><path d="M -5 -2 C -5 -3.657 -3.657 -5 -2 -5 C -0.343 -5 1 -3.657 1 -2 C 1 -0.343 -0.343 1 -2 1 C -3.657 1 -5 -0.343 -5 -2 Z" fill="#FFE39A"/></g><g id="plants4--f2" transform="translate(183 465) rotate(0) scale(0.41 0.41)"><g transform="translate(0 0) rotate(0) scale(1 1)"><path d="M -9 -15 C -9 -22.732 -4.971 -29 0 -29 C 4.971 -29 9 -22.732 9 -15 C 9 -7.268 4.971 -1 0 -1 C -4.971 -1 -9 -7.268 -9 -15 Z" fill="#FFFAE8"/></g><g transform="translate(0 0) rotate(72) scale(1 1)"><path d="M -9 -15 C -9 -22.732 -4.971 -29 0 -29 C 4.971 -29 9 -22.732 9 -15 C 9 -7.268 4.971 -1 0 -1 C -4.971 -1 -9 -7.268 -9 -15 Z" fill="#FFFAE8"/></g><g transform="translate(0 0) rotate(144) scale(1 1)"><path d="M -9 -15 C -9 -22.732 -4.971 -29 0 -29 C 4.971 -29 9 -22.732 9 -15 C 9 -7.268 4.971 -1 0 -1 C -4.971 -1 -9 -7.268 -9 -15 Z" fill="#FFFAE8"/></g><g transform="translate(0 0) rotate(216) scale(1 1)"><path d="M -9 -15 C -9 -22.732 -4.971 -29 0 -29 C 4.971 -29 9 -22.732 9 -15 C 9 -7.268 4.971 -1 0 -1 C -4.971 -1 -9 -7.268 -9 -15 Z" fill="#FFFAE8"/></g><g transform="translate(0 0) rotate(288) scale(1 1)"><path d="M -9 -15 C -9 -22.732 -4.971 -29 0 -29 C 4.971 -29 9 -22.732 9 -15 C 9 -7.268 4.971 -1 0 -1 C -4.971 -1 -9 -7.268 -9 -15 Z" fill="#FFFAE8"/></g><path d="M -8 0 C -8 -4.418 -4.418 -8 0 -8 C 4.418 -8 8 -4.418 8 0 C 8 4.418 4.418 8 0 8 C -4.418 8 -8 4.418 -8 0 Z" fill="#EBC25D"/><path d="M -5 -2 C -5 -3.657 -3.657 -5 -2 -5 C -0.343 -5 1 -3.657 1 -2 C 1 -0.343 -0.343 1 -2 1 C -3.657 1 -5 -0.343 -5 -2 Z" fill="#FFE39A"/></g><g id="plants5--f3" transform="translate(438 454) rotate(0) scale(0.44 0.44)"><g transform="translate(0 0) rotate(0) scale(1 1)"><path d="M -9 -15 C -9 -22.732 -4.971 -29 0 -29 C 4.971 -29 9 -22.732 9 -15 C 9 -7.268 4.971 -1 0 -1 C -4.971 -1 -9 -7.268 -9 -15 Z" fill="#FFFAE8"/></g><g transform="translate(0 0) rotate(72) scale(1 1)"><path d="M -9 -15 C -9 -22.732 -4.971 -29 0 -29 C 4.971 -29 9 -22.732 9 -15 C 9 -7.268 4.971 -1 0 -1 C -4.971 -1 -9 -7.268 -9 -15 Z" fill="#FFFAE8"/></g><g transform="translate(0 0) rotate(144) scale(1 1)"><path d="M -9 -15 C -9 -22.732 -4.971 -29 0 -29 C 4.971 -29 9 -22.732 9 -15 C 9 -7.268 4.971 -1 0 -1 C -4.971 -1 -9 -7.268 -9 -15 Z" fill="#FFFAE8"/></g><g transform="translate(0 0) rotate(216) scale(1 1)"><path d="M -9 -15 C -9 -22.732 -4.971 -29 0 -29 C 4.971 -29 9 -22.732 9 -15 C 9 -7.268 4.971 -1 0 -1 C -4.971 -1 -9 -7.268 -9 -15 Z" fill="#FFFAE8"/></g><g transform="translate(0 0) rotate(288) scale(1 1)"><path d="M -9 -15 C -9 -22.732 -4.971 -29 0 -29 C 4.971 -29 9 -22.732 9 -15 C 9 -7.268 4.971 -1 0 -1 C -4.971 -1 -9 -7.268 -9 -15 Z" fill="#FFFAE8"/></g><path d="M -8 0 C -8 -4.418 -4.418 -8 0 -8 C 4.418 -8 8 -4.418 8 0 C 8 4.418 4.418 8 0 8 C -4.418 8 -8 4.418 -8 0 Z" fill="#EBC25D"/><path d="M -5 -2 C -5 -3.657 -3.657 -5 -2 -5 C -0.343 -5 1 -3.657 1 -2 C 1 -0.343 -0.343 1 -2 1 C -3.657 1 -5 -0.343 -5 -2 Z" fill="#FFE39A"/></g><g id="plants6--f4" transform="translate(383 466) rotate(0) scale(0.38 0.38)"><g transform="translate(0 0) rotate(0) scale(1 1)"><path d="M -9 -15 C -9 -22.732 -4.971 -29 0 -29 C 4.971 -29 9 -22.732 9 -15 C 9 -7.268 4.971 -1 0 -1 C -4.971 -1 -9 -7.268 -9 -15 Z" fill="#FFFAE8"/></g><g transform="translate(0 0) rotate(72) scale(1 1)"><path d="M -9 -15 C -9 -22.732 -4.971 -29 0 -29 C 4.971 -29 9 -22.732 9 -15 C 9 -7.268 4.971 -1 0 -1 C -4.971 -1 -9 -7.268 -9 -15 Z" fill="#FFFAE8"/></g><g transform="translate(0 0) rotate(144) scale(1 1)"><path d="M -9 -15 C -9 -22.732 -4.971 -29 0 -29 C 4.971 -29 9 -22.732 9 -15 C 9 -7.268 4.971 -1 0 -1 C -4.971 -1 -9 -7.268 -9 -15 Z" fill="#FFFAE8"/></g><g transform="translate(0 0) rotate(216) scale(1 1)"><path d="M -9 -15 C -9 -22.732 -4.971 -29 0 -29 C 4.971 -29 9 -22.732 9 -15 C 9 -7.268 4.971 -1 0 -1 C -4.971 -1 -9 -7.268 -9 -15 Z" fill="#FFFAE8"/></g><g transform="translate(0 0) rotate(288) scale(1 1)"><path d="M -9 -15 C -9 -22.732 -4.971 -29 0 -29 C 4.971 -29 9 -22.732 9 -15 C 9 -7.268 4.971 -1 0 -1 C -4.971 -1 -9 -7.268 -9 -15 Z" fill="#FFFAE8"/></g><path d="M -8 0 C -8 -4.418 -4.418 -8 0 -8 C 4.418 -8 8 -4.418 8 0 C 8 4.418 4.418 8 0 8 C -4.418 8 -8 4.418 -8 0 Z" fill="#EBC25D"/><path d="M -5 -2 C -5 -3.657 -3.657 -5 -2 -5 C -0.343 -5 1 -3.657 1 -2 C 1 -0.343 -0.343 1 -2 1 C -3.657 1 -5 -0.343 -5 -2 Z" fill="#FFE39A"/></g></g></svg>